<svg width="1024" height="753" viewBox="0 0 1024 753" fill="none" xmlns="http://www.w3.org/2000/svg">
<g clip-path="url(#clip0_122_130)">
<rect width="1024" height="753" fill="#121214"/>
<g opacity="0.2" filter="url(#filter0_f_122_130)">
<ellipse cx="604.5" cy="62" rx="670.5" ry="350" fill="#338AF3"/>
</g>
<path d="M125.035 298C126.53 298 127.662 298.63 128.431 299.891C129.213 301.138 129.605 302.953 129.605 305.336C129.605 307.719 129.213 309.541 128.431 310.802C127.662 312.063 126.53 312.693 125.035 312.693C123.554 312.693 122.422 312.063 121.639 310.802C120.856 309.541 120.465 307.719 120.465 305.336C120.465 302.967 120.856 301.152 121.639 299.891C122.422 298.63 123.554 298 125.035 298ZM121.953 305.336C121.953 307.026 122.107 308.35 122.415 309.306L127.068 300.099C126.579 299.448 125.901 299.122 125.035 299.122C124.071 299.122 123.316 299.635 122.771 300.66C122.226 301.672 121.953 303.23 121.953 305.336ZM125.035 311.55C126.013 311.55 126.775 311.044 127.32 310.033C127.865 309.008 128.137 307.442 128.137 305.336C128.137 303.549 127.963 302.163 127.613 301.18L122.96 310.469C123.463 311.19 124.154 311.55 125.035 311.55Z" fill="url(#paint0_linear_122_130)" fill-opacity="0.6"/>
<path d="M126.293 335.135H129.374V336.236H121.387V335.135H124.951V323.455L121.555 325.471L120.968 324.536L125.161 321.959H126.293V335.135Z" fill="url(#paint1_linear_122_130)" fill-opacity="0.6"/>
<path d="M125.035 345.502C126.53 345.502 127.662 346.133 128.431 347.393C129.213 348.64 129.605 350.455 129.605 352.838C129.605 355.221 129.213 357.043 128.431 358.304C127.662 359.565 126.53 360.195 125.035 360.195C123.554 360.195 122.422 359.565 121.639 358.304C120.856 357.043 120.465 355.221 120.465 352.838C120.465 350.469 120.856 348.654 121.639 347.393C122.422 346.133 123.554 345.502 125.035 345.502ZM121.953 352.838C121.953 354.529 122.107 355.852 122.415 356.808L127.068 347.601C126.579 346.95 125.901 346.624 125.035 346.624C124.071 346.624 123.316 347.137 122.771 348.162C122.226 349.174 121.953 350.732 121.953 352.838ZM125.035 359.052C126.013 359.052 126.775 358.546 127.32 357.535C127.865 356.51 128.137 354.944 128.137 352.838C128.137 351.051 127.963 349.665 127.613 348.682L122.96 357.971C123.463 358.692 124.154 359.052 125.035 359.052Z" fill="url(#paint2_linear_122_130)" fill-opacity="0.6"/>
<path d="M126.293 382.637H129.374V383.738H121.387V382.637H124.951V370.957L121.555 372.973L120.968 372.038L125.161 369.461H126.293V382.637Z" fill="url(#paint3_linear_122_130)" fill-opacity="0.6"/>
<path d="M126.293 406.388H129.374V407.489H121.387V406.388H124.951V394.708L121.555 396.724L120.968 395.789L125.161 393.212H126.293V406.388Z" fill="url(#paint4_linear_122_130)" fill-opacity="0.6"/>
<path d="M125.035 416.755C126.53 416.755 127.662 417.386 128.431 418.646C129.213 419.893 129.605 421.708 129.605 424.091C129.605 426.474 129.213 428.296 128.431 429.557C127.662 430.818 126.53 431.448 125.035 431.448C123.554 431.448 122.422 430.818 121.639 429.557C120.856 428.296 120.465 426.474 120.465 424.091C120.465 421.722 120.856 419.907 121.639 418.646C122.422 417.386 123.554 416.755 125.035 416.755ZM121.953 424.091C121.953 425.782 122.107 427.105 122.415 428.061L127.068 418.854C126.579 418.203 125.901 417.878 125.035 417.878C124.071 417.878 123.316 418.39 122.771 419.415C122.226 420.427 121.953 421.985 121.953 424.091ZM125.035 430.305C126.013 430.305 126.775 429.8 127.32 428.788C127.865 427.763 128.137 426.197 128.137 424.091C128.137 422.304 127.963 420.919 127.613 419.935L122.96 429.225C123.463 429.945 124.154 430.305 125.035 430.305Z" fill="url(#paint5_linear_122_130)" fill-opacity="0.6"/>
<path d="M126.293 453.89H129.374V454.992H121.387V453.89H124.951V442.21L121.555 444.226L120.968 443.291L125.161 440.714H126.293V453.89Z" fill="url(#paint6_linear_122_130)" fill-opacity="0.6"/>
<path d="M125.035 464.257C126.53 464.257 127.662 464.888 128.431 466.149C129.213 467.396 129.605 469.211 129.605 471.594C129.605 473.977 129.213 475.798 128.431 477.059C127.662 478.32 126.53 478.95 125.035 478.95C123.554 478.95 122.422 478.32 121.639 477.059C120.856 475.798 120.465 473.977 120.465 471.594C120.465 469.224 120.856 467.409 121.639 466.149C122.422 464.888 123.554 464.257 125.035 464.257ZM121.953 471.594C121.953 473.284 122.107 474.607 122.415 475.563L127.068 466.356C126.579 465.705 125.901 465.38 125.035 465.38C124.071 465.38 123.316 465.892 122.771 466.918C122.226 467.929 121.953 469.488 121.953 471.594ZM125.035 477.807C126.013 477.807 126.775 477.302 127.32 476.29C127.865 475.265 128.137 473.699 128.137 471.594C128.137 469.806 127.963 468.421 127.613 467.437L122.96 476.727C123.463 477.447 124.154 477.807 125.035 477.807Z" fill="url(#paint7_linear_122_130)" fill-opacity="0.6"/>
<path d="M125.035 488.008C126.53 488.008 127.662 488.639 128.431 489.9C129.213 491.147 129.605 492.962 129.605 495.345C129.605 497.728 129.213 499.549 128.431 500.81C127.662 502.071 126.53 502.701 125.035 502.701C123.554 502.701 122.422 502.071 121.639 500.81C120.856 499.549 120.465 497.728 120.465 495.345C120.465 492.975 120.856 491.16 121.639 489.9C122.422 488.639 123.554 488.008 125.035 488.008ZM121.953 495.345C121.953 497.035 122.107 498.358 122.415 499.314L127.068 490.107C126.579 489.456 125.901 489.131 125.035 489.131C124.071 489.131 123.316 489.643 122.771 490.669C122.226 491.68 121.953 493.239 121.953 495.345ZM125.035 501.558C126.013 501.558 126.775 501.053 127.32 500.041C127.865 499.016 128.137 497.451 128.137 495.345C128.137 493.557 127.963 492.172 127.613 491.188L122.96 500.478C123.463 501.198 124.154 501.558 125.035 501.558Z" fill="url(#paint8_linear_122_130)" fill-opacity="0.6"/>
<path d="M126.293 525.143H129.374V526.245H121.387V525.143H124.951V513.464L121.555 515.48L120.968 514.544L125.161 511.967H126.293V525.143Z" fill="url(#paint9_linear_122_130)" fill-opacity="0.6"/>
<path d="M125.035 535.511C126.53 535.511 127.662 536.141 128.431 537.402C129.213 538.649 129.605 540.464 129.605 542.847C129.605 545.23 129.213 547.052 128.431 548.312C127.662 549.573 126.53 550.204 125.035 550.204C123.554 550.204 122.422 549.573 121.639 548.312C120.856 547.052 120.465 545.23 120.465 542.847C120.465 540.478 120.856 538.663 121.639 537.402C122.422 536.141 123.554 535.511 125.035 535.511ZM121.953 542.847C121.953 544.537 122.107 545.86 122.415 546.816L127.068 537.61C126.579 536.958 125.901 536.633 125.035 536.633C124.071 536.633 123.316 537.145 122.771 538.171C122.226 539.182 121.953 540.741 121.953 542.847ZM125.035 549.061C126.013 549.061 126.775 548.555 127.32 547.543C127.865 546.518 128.137 544.953 128.137 542.847C128.137 541.059 127.963 539.674 127.613 538.69L122.96 547.98C123.463 548.7 124.154 549.061 125.035 549.061Z" fill="url(#paint10_linear_122_130)" fill-opacity="0.6"/>
<path d="M126.293 572.645H129.374V573.747H121.387V572.645H124.951V560.966L121.555 562.982L120.968 562.046L125.161 559.469H126.293V572.645Z" fill="url(#paint11_linear_122_130)" fill-opacity="0.6"/>
<path d="M126.293 596.396H129.374V597.498H121.387V596.396H124.951V584.717L121.555 586.733L120.968 585.798L125.161 583.221H126.293V596.396Z" fill="url(#paint12_linear_122_130)" fill-opacity="0.6"/>
<path d="M163.965 345.502C165.46 345.502 166.592 346.133 167.361 347.393C168.144 348.64 168.535 350.455 168.535 352.838C168.535 355.221 168.144 357.043 167.361 358.304C166.592 359.565 165.46 360.195 163.965 360.195C162.484 360.195 161.352 359.565 160.569 358.304C159.787 357.043 159.395 355.221 159.395 352.838C159.395 350.469 159.787 348.654 160.569 347.393C161.352 346.133 162.484 345.502 163.965 345.502ZM160.884 352.838C160.884 354.529 161.037 355.852 161.345 356.808L165.998 347.601C165.509 346.95 164.832 346.624 163.965 346.624C163.001 346.624 162.246 347.137 161.701 348.162C161.156 349.174 160.884 350.732 160.884 352.838ZM163.965 359.052C164.943 359.052 165.705 358.546 166.25 357.535C166.795 356.51 167.068 354.944 167.068 352.838C167.068 351.051 166.893 349.665 166.543 348.682L161.89 357.971C162.393 358.692 163.085 359.052 163.965 359.052Z" fill="url(#paint13_linear_122_130)" fill-opacity="0.6"/>
<path d="M165.223 382.637H168.304V383.738H160.318V382.637H163.881V370.957L160.485 372.973L159.898 372.038L164.091 369.461H165.223V382.637Z" fill="url(#paint14_linear_122_130)" fill-opacity="0.6"/>
<path d="M163.965 393.004C165.46 393.004 166.592 393.635 167.361 394.895C168.144 396.142 168.535 397.957 168.535 400.34C168.535 402.723 168.144 404.545 167.361 405.806C166.592 407.067 165.46 407.697 163.965 407.697C162.484 407.697 161.352 407.067 160.569 405.806C159.787 404.545 159.395 402.723 159.395 400.34C159.395 397.971 159.787 396.156 160.569 394.895C161.352 393.635 162.484 393.004 163.965 393.004ZM160.884 400.34C160.884 402.031 161.037 403.354 161.345 404.31L165.998 395.103C165.509 394.452 164.832 394.126 163.965 394.126C163.001 394.126 162.246 394.639 161.701 395.664C161.156 396.676 160.884 398.234 160.884 400.34ZM163.965 406.554C164.943 406.554 165.705 406.049 166.25 405.037C166.795 404.012 167.068 402.446 167.068 400.34C167.068 398.553 166.893 397.168 166.543 396.184L161.89 405.474C162.393 406.194 163.085 406.554 163.965 406.554Z" fill="url(#paint15_linear_122_130)" fill-opacity="0.6"/>
<path d="M163.965 416.755C165.46 416.755 166.592 417.386 167.361 418.646C168.144 419.893 168.535 421.708 168.535 424.091C168.535 426.474 168.144 428.296 167.361 429.557C166.592 430.818 165.46 431.448 163.965 431.448C162.484 431.448 161.352 430.818 160.569 429.557C159.787 428.296 159.395 426.474 159.395 424.091C159.395 421.722 159.787 419.907 160.569 418.646C161.352 417.386 162.484 416.755 163.965 416.755ZM160.884 424.091C160.884 425.782 161.037 427.105 161.345 428.061L165.998 418.854C165.509 418.203 164.832 417.878 163.965 417.878C163.001 417.878 162.246 418.39 161.701 419.415C161.156 420.427 160.884 421.985 160.884 424.091ZM163.965 430.305C164.943 430.305 165.705 429.8 166.25 428.788C166.795 427.763 167.068 426.197 167.068 424.091C167.068 422.304 166.893 420.919 166.543 419.935L161.89 429.225C162.393 429.945 163.085 430.305 163.965 430.305Z" fill="url(#paint16_linear_122_130)" fill-opacity="0.6"/>
<path d="M165.223 453.89H168.304V454.992H160.318V453.89H163.881V442.21L160.485 444.226L159.898 443.291L164.091 440.714H165.223V453.89Z" fill="url(#paint17_linear_122_130)" fill-opacity="0.6"/>
<path d="M163.965 464.257C165.46 464.257 166.592 464.888 167.361 466.149C168.144 467.396 168.535 469.211 168.535 471.594C168.535 473.977 168.144 475.798 167.361 477.059C166.592 478.32 165.46 478.95 163.965 478.95C162.484 478.95 161.352 478.32 160.569 477.059C159.787 475.798 159.395 473.977 159.395 471.594C159.395 469.224 159.787 467.409 160.569 466.149C161.352 464.888 162.484 464.257 163.965 464.257ZM160.884 471.594C160.884 473.284 161.037 474.607 161.345 475.563L165.998 466.356C165.509 465.705 164.832 465.38 163.965 465.38C163.001 465.38 162.246 465.892 161.701 466.918C161.156 467.929 160.884 469.488 160.884 471.594ZM163.965 477.807C164.943 477.807 165.705 477.302 166.25 476.29C166.795 475.265 167.068 473.699 167.068 471.594C167.068 469.806 166.893 468.421 166.543 467.437L161.89 476.727C162.393 477.447 163.085 477.807 163.965 477.807Z" fill="url(#paint18_linear_122_130)" fill-opacity="0.6"/>
<path d="M165.223 501.392H168.304V502.494H160.318V501.392H163.881V489.713L160.485 491.728L159.898 490.793L164.091 488.216H165.223V501.392Z" fill="url(#paint19_linear_122_130)" fill-opacity="0.6"/>
<path d="M163.965 511.76C165.46 511.76 166.592 512.39 167.361 513.651C168.144 514.898 168.535 516.713 168.535 519.096C168.535 521.479 168.144 523.301 167.361 524.561C166.592 525.822 165.46 526.453 163.965 526.453C162.484 526.453 161.352 525.822 160.569 524.561C159.787 523.301 159.395 521.479 159.395 519.096C159.395 516.726 159.787 514.911 160.569 513.651C161.352 512.39 162.484 511.76 163.965 511.76ZM160.884 519.096C160.884 520.786 161.037 522.109 161.345 523.065L165.998 513.859C165.509 513.207 164.832 512.882 163.965 512.882C163.001 512.882 162.246 513.394 161.701 514.42C161.156 515.431 160.884 516.99 160.884 519.096ZM163.965 525.31C164.943 525.31 165.705 524.804 166.25 523.792C166.795 522.767 167.068 521.202 167.068 519.096C167.068 517.308 166.893 515.923 166.543 514.939L161.89 524.229C162.393 524.949 163.085 525.31 163.965 525.31Z" fill="url(#paint20_linear_122_130)" fill-opacity="0.6"/>
<path d="M163.965 535.511C165.46 535.511 166.592 536.141 167.361 537.402C168.144 538.649 168.535 540.464 168.535 542.847C168.535 545.23 168.144 547.052 167.361 548.312C166.592 549.573 165.46 550.204 163.965 550.204C162.484 550.204 161.352 549.573 160.569 548.312C159.787 547.052 159.395 545.23 159.395 542.847C159.395 540.478 159.787 538.663 160.569 537.402C161.352 536.141 162.484 535.511 163.965 535.511ZM160.884 542.847C160.884 544.537 161.037 545.86 161.345 546.816L165.998 537.61C165.509 536.958 164.832 536.633 163.965 536.633C163.001 536.633 162.246 537.145 161.701 538.171C161.156 539.182 160.884 540.741 160.884 542.847ZM163.965 549.061C164.943 549.061 165.705 548.555 166.25 547.543C166.795 546.518 167.068 544.953 167.068 542.847C167.068 541.059 166.893 539.674 166.543 538.69L161.89 547.98C162.393 548.7 163.085 549.061 163.965 549.061Z" fill="url(#paint21_linear_122_130)" fill-opacity="0.6"/>
<path d="M165.223 572.645H168.304V573.747H160.318V572.645H163.881V560.966L160.485 562.982L159.898 562.046L164.091 559.469H165.223V572.645Z" fill="url(#paint22_linear_122_130)" fill-opacity="0.6"/>
<path d="M163.965 583.013C165.46 583.013 166.592 583.643 167.361 584.904C168.144 586.151 168.535 587.966 168.535 590.349C168.535 592.732 168.144 594.554 167.361 595.815C166.592 597.075 165.46 597.706 163.965 597.706C162.484 597.706 161.352 597.075 160.569 595.815C159.787 594.554 159.395 592.732 159.395 590.349C159.395 587.98 159.787 586.165 160.569 584.904C161.352 583.643 162.484 583.013 163.965 583.013ZM160.884 590.349C160.884 592.039 161.037 593.362 161.345 594.318L165.998 585.112C165.509 584.461 164.832 584.135 163.965 584.135C163.001 584.135 162.246 584.648 161.701 585.673C161.156 586.684 160.884 588.243 160.884 590.349ZM163.965 596.563C164.943 596.563 165.705 596.057 166.25 595.046C166.795 594.02 167.068 592.455 167.068 590.349C167.068 588.562 166.893 587.176 166.543 586.192L161.89 595.482C162.393 596.202 163.085 596.563 163.965 596.563Z" fill="url(#paint23_linear_122_130)" fill-opacity="0.6"/>
<path d="M165.223 620.148H168.304V621.249H160.318V620.148H163.881V608.468L160.485 610.484L159.898 609.549L164.091 606.972H165.223V620.148Z" fill="url(#paint24_linear_122_130)" fill-opacity="0.6"/>
<path d="M165.223 643.899H168.304V645H160.318V643.899H163.881V632.219L160.485 634.235L159.898 633.3L164.091 630.723H165.223V643.899Z" fill="url(#paint25_linear_122_130)" fill-opacity="0.6"/>
<path d="M105.57 369.253C107.065 369.253 108.197 369.884 108.966 371.144C109.748 372.391 110.14 374.206 110.14 376.589C110.14 378.972 109.748 380.794 108.966 382.055C108.197 383.316 107.065 383.946 105.57 383.946C104.088 383.946 102.956 383.316 102.174 382.055C101.391 380.794 101 378.972 101 376.589C101 374.22 101.391 372.405 102.174 371.144C102.956 369.884 104.088 369.253 105.57 369.253ZM102.488 376.589C102.488 378.28 102.642 379.603 102.95 380.559L107.603 371.352C107.114 370.701 106.436 370.375 105.57 370.375C104.606 370.375 103.851 370.888 103.306 371.913C102.761 372.925 102.488 374.483 102.488 376.589ZM105.57 382.803C106.548 382.803 107.31 382.297 107.855 381.286C108.4 380.261 108.672 378.695 108.672 376.589C108.672 374.802 108.498 373.417 108.148 372.433L103.495 381.722C103.998 382.443 104.689 382.803 105.57 382.803Z" fill="url(#paint26_linear_122_130)" fill-opacity="0.6"/>
<path d="M105.57 393.004C107.065 393.004 108.197 393.635 108.966 394.895C109.748 396.142 110.14 397.957 110.14 400.34C110.14 402.723 109.748 404.545 108.966 405.806C108.197 407.067 107.065 407.697 105.57 407.697C104.088 407.697 102.956 407.067 102.174 405.806C101.391 404.545 101 402.723 101 400.34C101 397.971 101.391 396.156 102.174 394.895C102.956 393.635 104.088 393.004 105.57 393.004ZM102.488 400.34C102.488 402.031 102.642 403.354 102.95 404.31L107.603 395.103C107.114 394.452 106.436 394.126 105.57 394.126C104.606 394.126 103.851 394.639 103.306 395.664C102.761 396.676 102.488 398.234 102.488 400.34ZM105.57 406.554C106.548 406.554 107.31 406.049 107.855 405.037C108.4 404.012 108.672 402.446 108.672 400.34C108.672 398.553 108.498 397.168 108.148 396.184L103.495 405.474C103.998 406.194 104.689 406.554 105.57 406.554Z" fill="url(#paint27_linear_122_130)" fill-opacity="0.6"/>
<path d="M106.828 430.139H109.909V431.24H101.922V430.139H105.486V418.459L102.09 420.475L101.503 419.54L105.696 416.963H106.828V430.139Z" fill="url(#paint28_linear_122_130)" fill-opacity="0.6"/>
<path d="M105.57 440.506C107.065 440.506 108.197 441.137 108.966 442.398C109.748 443.644 110.14 445.459 110.14 447.842C110.14 450.225 109.748 452.047 108.966 453.308C108.197 454.569 107.065 455.199 105.57 455.199C104.088 455.199 102.956 454.569 102.174 453.308C101.391 452.047 101 450.225 101 447.842C101 445.473 101.391 443.658 102.174 442.398C102.956 441.137 104.088 440.506 105.57 440.506ZM102.488 447.842C102.488 449.533 102.642 450.856 102.95 451.812L107.603 442.605C107.114 441.954 106.436 441.629 105.57 441.629C104.606 441.629 103.851 442.141 103.306 443.166C102.761 444.178 102.488 445.737 102.488 447.842ZM105.57 454.056C106.548 454.056 107.31 453.551 107.855 452.539C108.4 451.514 108.672 449.948 108.672 447.842C108.672 446.055 108.498 444.67 108.148 443.686L103.495 452.976C103.998 453.696 104.689 454.056 105.57 454.056Z" fill="url(#paint29_linear_122_130)" fill-opacity="0.6"/>
<path d="M106.828 477.641H109.909V478.743H101.922V477.641H105.486V465.962L102.09 467.977L101.503 467.042L105.696 464.465H106.828V477.641Z" fill="url(#paint30_linear_122_130)" fill-opacity="0.6"/>
<path d="M106.828 501.392H109.909V502.494H101.922V501.392H105.486V489.713L102.09 491.728L101.503 490.793L105.696 488.216H106.828V501.392Z" fill="url(#paint31_linear_122_130)" fill-opacity="0.6"/>
<path d="M145.758 335.135H148.839V336.236H140.853V335.135H144.416V323.455L141.02 325.471L140.433 324.536L144.626 321.959H145.758V335.135Z" fill="url(#paint32_linear_122_130)" fill-opacity="0.6"/>
<path d="M144.5 345.502C145.995 345.502 147.127 346.133 147.896 347.393C148.679 348.64 149.07 350.455 149.07 352.838C149.07 355.221 148.679 357.043 147.896 358.304C147.127 359.565 145.995 360.195 144.5 360.195C143.019 360.195 141.887 359.565 141.104 358.304C140.321 357.043 139.93 355.221 139.93 352.838C139.93 350.469 140.321 348.654 141.104 347.393C141.887 346.133 143.019 345.502 144.5 345.502ZM141.419 352.838C141.419 354.529 141.572 355.852 141.88 356.808L146.533 347.601C146.044 346.95 145.366 346.624 144.5 346.624C143.536 346.624 142.781 347.137 142.236 348.162C141.691 349.174 141.419 350.732 141.419 352.838ZM144.5 359.052C145.478 359.052 146.24 358.546 146.785 357.535C147.33 356.51 147.602 354.944 147.602 352.838C147.602 351.051 147.428 349.665 147.078 348.682L142.425 357.971C142.928 358.692 143.62 359.052 144.5 359.052Z" fill="url(#paint33_linear_122_130)" fill-opacity="0.6"/>
<path d="M145.758 382.637H148.839V383.738H140.853V382.637H144.416V370.957L141.02 372.973L140.433 372.038L144.626 369.461H145.758V382.637Z" fill="url(#paint34_linear_122_130)" fill-opacity="0.6"/>
<path d="M145.758 406.388H148.839V407.489H140.853V406.388H144.416V394.708L141.02 396.724L140.433 395.789L144.626 393.212H145.758V406.388Z" fill="url(#paint35_linear_122_130)" fill-opacity="0.6"/>
<path d="M144.5 416.755C145.995 416.755 147.127 417.386 147.896 418.646C148.679 419.893 149.07 421.708 149.07 424.091C149.07 426.474 148.679 428.296 147.896 429.557C147.127 430.818 145.995 431.448 144.5 431.448C143.019 431.448 141.887 430.818 141.104 429.557C140.321 428.296 139.93 426.474 139.93 424.091C139.93 421.722 140.321 419.907 141.104 418.646C141.887 417.386 143.019 416.755 144.5 416.755ZM141.419 424.091C141.419 425.782 141.572 427.105 141.88 428.061L146.533 418.854C146.044 418.203 145.366 417.878 144.5 417.878C143.536 417.878 142.781 418.39 142.236 419.415C141.691 420.427 141.419 421.985 141.419 424.091ZM144.5 430.305C145.478 430.305 146.24 429.8 146.785 428.788C147.33 427.763 147.602 426.197 147.602 424.091C147.602 422.304 147.428 420.919 147.078 419.935L142.425 429.225C142.928 429.945 143.62 430.305 144.5 430.305Z" fill="url(#paint36_linear_122_130)" fill-opacity="0.6"/>
<path d="M145.758 453.89H148.839V454.992H140.853V453.89H144.416V442.21L141.02 444.226L140.433 443.291L144.626 440.714H145.758V453.89Z" fill="url(#paint37_linear_122_130)" fill-opacity="0.6"/>
<path d="M145.758 477.641H148.839V478.743H140.853V477.641H144.416V465.962L141.02 467.977L140.433 467.042L144.626 464.465H145.758V477.641Z" fill="url(#paint38_linear_122_130)" fill-opacity="0.6"/>
<path d="M144.5 488.008C145.995 488.008 147.127 488.639 147.896 489.9C148.679 491.147 149.07 492.962 149.07 495.345C149.07 497.728 148.679 499.549 147.896 500.81C147.127 502.071 145.995 502.701 144.5 502.701C143.019 502.701 141.887 502.071 141.104 500.81C140.321 499.549 139.93 497.728 139.93 495.345C139.93 492.975 140.321 491.16 141.104 489.9C141.887 488.639 143.019 488.008 144.5 488.008ZM141.419 495.345C141.419 497.035 141.572 498.358 141.88 499.314L146.533 490.107C146.044 489.456 145.366 489.131 144.5 489.131C143.536 489.131 142.781 489.643 142.236 490.669C141.691 491.68 141.419 493.239 141.419 495.345ZM144.5 501.558C145.478 501.558 146.24 501.053 146.785 500.041C147.33 499.016 147.602 497.451 147.602 495.345C147.602 493.557 147.428 492.172 147.078 491.188L142.425 500.478C142.928 501.198 143.62 501.558 144.5 501.558Z" fill="url(#paint39_linear_122_130)" fill-opacity="0.6"/>
<path d="M145.758 525.143H148.839V526.245H140.853V525.143H144.416V513.464L141.02 515.48L140.433 514.544L144.626 511.967H145.758V525.143Z" fill="url(#paint40_linear_122_130)" fill-opacity="0.6"/>
<path d="M144.5 535.511C145.995 535.511 147.127 536.141 147.896 537.402C148.679 538.649 149.07 540.464 149.07 542.847C149.07 545.23 148.679 547.052 147.896 548.312C147.127 549.573 145.995 550.204 144.5 550.204C143.019 550.204 141.887 549.573 141.104 548.312C140.321 547.052 139.93 545.23 139.93 542.847C139.93 540.478 140.321 538.663 141.104 537.402C141.887 536.141 143.019 535.511 144.5 535.511ZM141.419 542.847C141.419 544.537 141.572 545.86 141.88 546.816L146.533 537.61C146.044 536.958 145.366 536.633 144.5 536.633C143.536 536.633 142.781 537.145 142.236 538.171C141.691 539.182 141.419 540.741 141.419 542.847ZM144.5 549.061C145.478 549.061 146.24 548.555 146.785 547.543C147.33 546.518 147.602 544.953 147.602 542.847C147.602 541.059 147.428 539.674 147.078 538.69L142.425 547.98C142.928 548.7 143.62 549.061 144.5 549.061Z" fill="url(#paint41_linear_122_130)" fill-opacity="0.6"/>
<path d="M183.43 321.751C184.926 321.751 186.057 322.381 186.826 323.642C187.609 324.889 188 326.704 188 329.087C188 331.47 187.609 333.292 186.826 334.553C186.057 335.814 184.926 336.444 183.43 336.444C181.949 336.444 180.817 335.814 180.034 334.553C179.252 333.292 178.86 331.47 178.86 329.087C178.86 326.718 179.252 324.903 180.034 323.642C180.817 322.381 181.949 321.751 183.43 321.751ZM180.349 329.087C180.349 330.777 180.502 332.101 180.81 333.057L185.464 323.85C184.974 323.199 184.297 322.873 183.43 322.873C182.466 322.873 181.711 323.386 181.166 324.411C180.621 325.423 180.349 326.981 180.349 329.087ZM183.43 335.301C184.408 335.301 185.17 334.795 185.715 333.784C186.26 332.759 186.533 331.193 186.533 329.087C186.533 327.3 186.358 325.914 186.009 324.931L181.355 334.22C181.858 334.941 182.55 335.301 183.43 335.301Z" fill="url(#paint42_linear_122_130)" fill-opacity="0.6"/>
<path d="M184.688 358.886H187.769V359.987H179.783V358.886H183.346V347.206L179.95 349.222L179.363 348.287L183.556 345.71H184.688V358.886Z" fill="url(#paint43_linear_122_130)" fill-opacity="0.6"/>
<path d="M184.688 382.637H187.769V383.738H179.783V382.637H183.346V370.957L179.95 372.973L179.363 372.038L183.556 369.461H184.688V382.637Z" fill="url(#paint44_linear_122_130)" fill-opacity="0.6"/>
<path d="M183.43 393.004C184.926 393.004 186.057 393.635 186.826 394.895C187.609 396.142 188 397.957 188 400.34C188 402.723 187.609 404.545 186.826 405.806C186.057 407.067 184.926 407.697 183.43 407.697C181.949 407.697 180.817 407.067 180.034 405.806C179.252 404.545 178.86 402.723 178.86 400.34C178.86 397.971 179.252 396.156 180.034 394.895C180.817 393.635 181.949 393.004 183.43 393.004ZM180.349 400.34C180.349 402.031 180.502 403.354 180.81 404.31L185.464 395.103C184.974 394.452 184.297 394.126 183.43 394.126C182.466 394.126 181.711 394.639 181.166 395.664C180.621 396.676 180.349 398.234 180.349 400.34ZM183.43 406.554C184.408 406.554 185.17 406.049 185.715 405.037C186.26 404.012 186.533 402.446 186.533 400.34C186.533 398.553 186.358 397.168 186.009 396.184L181.355 405.474C181.858 406.194 182.55 406.554 183.43 406.554Z" fill="url(#paint45_linear_122_130)" fill-opacity="0.6"/>
<path d="M183.43 416.755C184.926 416.755 186.057 417.386 186.826 418.646C187.609 419.893 188 421.708 188 424.091C188 426.474 187.609 428.296 186.826 429.557C186.057 430.818 184.926 431.448 183.43 431.448C181.949 431.448 180.817 430.818 180.034 429.557C179.252 428.296 178.86 426.474 178.86 424.091C178.86 421.722 179.252 419.907 180.034 418.646C180.817 417.386 181.949 416.755 183.43 416.755ZM180.349 424.091C180.349 425.782 180.502 427.105 180.81 428.061L185.464 418.854C184.974 418.203 184.297 417.878 183.43 417.878C182.466 417.878 181.711 418.39 181.166 419.415C180.621 420.427 180.349 421.985 180.349 424.091ZM183.43 430.305C184.408 430.305 185.17 429.8 185.715 428.788C186.26 427.763 186.533 426.197 186.533 424.091C186.533 422.304 186.358 420.919 186.009 419.935L181.355 429.225C181.858 429.945 182.55 430.305 183.43 430.305Z" fill="url(#paint46_linear_122_130)" fill-opacity="0.6"/>
<g opacity="0.6">
<path d="M1011.93 -2C1013.36 -2 1014.44 -1.39504 1015.17 -0.185123C1015.92 1.0115 1016.29 2.75325 1016.29 5.04013C1016.29 7.32701 1015.92 9.0754 1015.17 10.2853C1014.44 11.4952 1013.36 12.1002 1011.93 12.1002C1010.52 12.1002 1009.44 11.4952 1008.69 10.2853C1007.94 9.0754 1007.57 7.32701 1007.57 5.04013C1007.57 2.76654 1007.94 1.02479 1008.69 -0.185123C1009.44 -1.39504 1010.52 -2 1011.93 -2ZM1008.99 5.04013C1008.99 6.66222 1009.14 7.93196 1009.43 8.84937L1013.87 0.0143141C1013.4 -0.610588 1012.76 -0.92304 1011.93 -0.92304C1011.01 -0.92304 1010.29 -0.431095 1009.77 0.552794C1009.25 1.52339 1008.99 3.01917 1008.99 5.04013ZM1011.93 11.0033C1012.86 11.0033 1013.59 10.518 1014.11 9.5474C1014.63 8.56351 1014.89 7.06109 1014.89 5.04013C1014.89 3.32497 1014.72 1.99539 1014.39 1.05139L1009.95 9.96622C1010.43 10.6576 1011.09 11.0033 1011.93 11.0033Z" fill="url(#paint47_linear_122_130)"/>
<path d="M1013.13 33.6365H1016.07V34.6936H1008.45V33.6365H1011.85V22.4282L1008.61 24.3627L1008.05 23.4653L1012.05 20.9922H1013.13V33.6365Z" fill="url(#paint48_linear_122_130)"/>
<path d="M1011.93 43.5856C1013.36 43.5856 1014.44 44.1906 1015.17 45.4005C1015.92 46.5971 1016.29 48.3389 1016.29 50.6257C1016.29 52.9126 1015.92 54.661 1015.17 55.8709C1014.44 57.0808 1013.36 57.6858 1011.93 57.6858C1010.52 57.6858 1009.44 57.0808 1008.69 55.8709C1007.94 54.661 1007.57 52.9126 1007.57 50.6257C1007.57 48.3522 1007.94 46.6104 1008.69 45.4005C1009.44 44.1906 1010.52 43.5856 1011.93 43.5856ZM1008.99 50.6257C1008.99 52.2478 1009.14 53.5176 1009.43 54.435L1013.87 45.5999C1013.4 44.975 1012.76 44.6626 1011.93 44.6626C1011.01 44.6626 1010.29 45.1545 1009.77 46.1384C1009.25 47.109 1008.99 48.6048 1008.99 50.6257ZM1011.93 56.5889C1012.86 56.5889 1013.59 56.1036 1014.11 55.133C1014.63 54.1491 1014.89 52.6467 1014.89 50.6257C1014.89 48.9106 1014.72 47.581 1014.39 46.637L1009.95 55.5518C1010.43 56.2432 1011.09 56.5889 1011.93 56.5889Z" fill="url(#paint49_linear_122_130)"/>
<path d="M1013.13 79.2221H1016.07V80.2792H1008.45V79.2221H1011.85V68.0138L1008.61 69.9483L1008.05 69.0509L1012.05 66.5778H1013.13V79.2221Z" fill="url(#paint50_linear_122_130)"/>
<path d="M1013.13 102.015H1016.07V103.072H1008.45V102.015H1011.85V90.8066L1008.61 92.7411L1008.05 91.8437L1012.05 89.3706H1013.13V102.015Z" fill="url(#paint51_linear_122_130)"/>
<path d="M1011.93 111.964C1013.36 111.964 1014.44 112.569 1015.17 113.779C1015.92 114.976 1016.29 116.717 1016.29 119.004C1016.29 121.291 1015.92 123.039 1015.17 124.249C1014.44 125.459 1013.36 126.064 1011.93 126.064C1010.52 126.064 1009.44 125.459 1008.69 124.249C1007.94 123.039 1007.57 121.291 1007.57 119.004C1007.57 116.731 1007.94 114.989 1008.69 113.779C1009.44 112.569 1010.52 111.964 1011.93 111.964ZM1008.99 119.004C1008.99 120.626 1009.14 121.896 1009.43 122.813L1013.87 113.978C1013.4 113.353 1012.76 113.041 1011.93 113.041C1011.01 113.041 1010.29 113.533 1009.77 114.517C1009.25 115.487 1008.99 116.983 1008.99 119.004ZM1011.93 124.967C1012.86 124.967 1013.59 124.482 1014.11 123.511C1014.63 122.528 1014.89 121.025 1014.89 119.004C1014.89 117.289 1014.72 115.959 1014.39 115.015L1009.95 123.93C1010.43 124.622 1011.09 124.967 1011.93 124.967Z" fill="url(#paint52_linear_122_130)"/>
<path d="M1013.13 147.601H1016.07V148.658H1008.45V147.601H1011.85V136.392L1008.61 138.327L1008.05 137.429L1012.05 134.956H1013.13V147.601Z" fill="url(#paint53_linear_122_130)"/>
<path d="M1011.93 157.55C1013.36 157.55 1014.44 158.155 1015.17 159.365C1015.92 160.561 1016.29 162.303 1016.29 164.59C1016.29 166.877 1015.92 168.625 1015.17 169.835C1014.44 171.045 1013.36 171.65 1011.93 171.65C1010.52 171.65 1009.44 171.045 1008.69 169.835C1007.94 168.625 1007.57 166.877 1007.57 164.59C1007.57 162.316 1007.94 160.574 1008.69 159.365C1009.44 158.155 1010.52 157.55 1011.93 157.55ZM1008.99 164.59C1008.99 166.212 1009.14 167.482 1009.43 168.399L1013.87 159.564C1013.4 158.939 1012.76 158.627 1011.93 158.627C1011.01 158.627 1010.29 159.119 1009.77 160.102C1009.25 161.073 1008.99 162.569 1008.99 164.59ZM1011.93 170.553C1012.86 170.553 1013.59 170.068 1014.11 169.097C1014.63 168.113 1014.89 166.611 1014.89 164.59C1014.89 162.875 1014.72 161.545 1014.39 160.601L1009.95 169.516C1010.43 170.207 1011.09 170.553 1011.93 170.553Z" fill="url(#paint54_linear_122_130)"/>
<path d="M1011.93 180.342C1013.36 180.342 1014.44 180.947 1015.17 182.157C1015.92 183.354 1016.29 185.096 1016.29 187.383C1016.29 189.669 1015.92 191.418 1015.17 192.628C1014.44 193.838 1013.36 194.443 1011.93 194.443C1010.52 194.443 1009.44 193.838 1008.69 192.628C1007.94 191.418 1007.57 189.669 1007.57 187.383C1007.57 185.109 1007.94 183.367 1008.69 182.157C1009.44 180.947 1010.52 180.342 1011.93 180.342ZM1008.99 187.383C1008.99 189.005 1009.14 190.274 1009.43 191.192L1013.87 182.357C1013.4 181.732 1012.76 181.419 1011.93 181.419C1011.01 181.419 1010.29 181.911 1009.77 182.895C1009.25 183.866 1008.99 185.362 1008.99 187.383ZM1011.93 193.346C1012.86 193.346 1013.59 192.86 1014.11 191.89C1014.63 190.906 1014.89 189.404 1014.89 187.383C1014.89 185.667 1014.72 184.338 1014.39 183.394L1009.95 192.309C1010.43 193 1011.09 193.346 1011.93 193.346Z" fill="url(#paint55_linear_122_130)"/>
<path d="M1013.13 215.979H1016.07V217.036H1008.45V215.979H1011.85V204.771L1008.61 206.705L1008.05 205.808L1012.05 203.335H1013.13V215.979Z" fill="url(#paint56_linear_122_130)"/>
<path d="M1011.93 225.928C1013.36 225.928 1014.44 226.533 1015.17 227.743C1015.92 228.94 1016.29 230.681 1016.29 232.968C1016.29 235.255 1015.92 237.003 1015.17 238.213C1014.44 239.423 1013.36 240.028 1011.93 240.028C1010.52 240.028 1009.44 239.423 1008.69 238.213C1007.94 237.003 1007.57 235.255 1007.57 232.968C1007.57 230.695 1007.94 228.953 1008.69 227.743C1009.44 226.533 1010.52 225.928 1011.93 225.928ZM1008.99 232.968C1008.99 234.59 1009.14 235.86 1009.43 236.777L1013.87 227.942C1013.4 227.317 1012.76 227.005 1011.93 227.005C1011.01 227.005 1010.29 227.497 1009.77 228.481C1009.25 229.451 1008.99 230.947 1008.99 232.968ZM1011.93 238.931C1012.86 238.931 1013.59 238.446 1014.11 237.475C1014.63 236.492 1014.89 234.989 1014.89 232.968C1014.89 231.253 1014.72 229.923 1014.39 228.979L1009.95 237.894C1010.43 238.586 1011.09 238.931 1011.93 238.931Z" fill="url(#paint57_linear_122_130)"/>
<path d="M1013.13 261.565H1016.07V262.622H1008.45V261.565H1011.85V250.356L1008.61 252.291L1008.05 251.393L1012.05 248.92H1013.13V261.565Z" fill="url(#paint58_linear_122_130)"/>
<path d="M1013.13 284.357H1016.07V285.414H1008.45V284.357H1011.85V273.149L1008.61 275.084L1008.05 274.186L1012.05 271.713H1013.13V284.357Z" fill="url(#paint59_linear_122_130)"/>
<path d="M1049.07 43.5856C1050.5 43.5856 1051.58 44.1906 1052.31 45.4005C1053.06 46.5971 1053.43 48.3389 1053.43 50.6257C1053.43 52.9126 1053.06 54.661 1052.31 55.8709C1051.58 57.0808 1050.5 57.6858 1049.07 57.6858C1047.66 57.6858 1046.58 57.0808 1045.83 55.8709C1045.08 54.661 1044.71 52.9126 1044.71 50.6257C1044.71 48.3522 1045.08 46.6104 1045.83 45.4005C1046.58 44.1906 1047.66 43.5856 1049.07 43.5856ZM1046.13 50.6257C1046.13 52.2478 1046.28 53.5176 1046.57 54.435L1051.01 45.5999C1050.54 44.975 1049.9 44.6626 1049.07 44.6626C1048.15 44.6626 1047.43 45.1545 1046.91 46.1384C1046.39 47.109 1046.13 48.6048 1046.13 50.6257ZM1049.07 56.5889C1050 56.5889 1050.73 56.1036 1051.25 55.133C1051.77 54.1491 1052.03 52.6467 1052.03 50.6257C1052.03 48.9106 1051.86 47.581 1051.53 46.637L1047.09 55.5518C1047.57 56.2432 1048.23 56.5889 1049.07 56.5889Z" fill="url(#paint60_linear_122_130)"/>
<path d="M1050.27 79.2221H1053.21V80.2792H1045.59V79.2221H1048.99V68.0138L1045.75 69.9483L1045.19 69.0509L1049.19 66.5778H1050.27V79.2221Z" fill="url(#paint61_linear_122_130)"/>
<path d="M1049.07 89.1712C1050.5 89.1712 1051.58 89.7762 1052.31 90.9861C1053.06 92.1827 1053.43 93.9245 1053.43 96.2113C1053.43 98.4982 1053.06 100.247 1052.31 101.457C1051.58 102.666 1050.5 103.271 1049.07 103.271C1047.66 103.271 1046.58 102.666 1045.83 101.457C1045.08 100.247 1044.71 98.4982 1044.71 96.2113C1044.71 93.9378 1045.08 92.196 1045.83 90.9861C1046.58 89.7762 1047.66 89.1712 1049.07 89.1712ZM1046.13 96.2113C1046.13 97.8334 1046.28 99.1032 1046.57 100.021L1051.01 91.1855C1050.54 90.5606 1049.9 90.2482 1049.07 90.2482C1048.15 90.2482 1047.43 90.7401 1046.91 91.724C1046.39 92.6946 1046.13 94.1904 1046.13 96.2113ZM1049.07 102.174C1050 102.174 1050.73 101.689 1051.25 100.719C1051.77 99.7347 1052.03 98.2323 1052.03 96.2113C1052.03 94.4962 1051.86 93.1666 1051.53 92.2226L1047.09 101.137C1047.57 101.829 1048.23 102.174 1049.07 102.174Z" fill="url(#paint62_linear_122_130)"/>
<path d="M1049.07 111.964C1050.5 111.964 1051.58 112.569 1052.31 113.779C1053.06 114.976 1053.43 116.717 1053.43 119.004C1053.43 121.291 1053.06 123.039 1052.31 124.249C1051.58 125.459 1050.5 126.064 1049.07 126.064C1047.66 126.064 1046.58 125.459 1045.83 124.249C1045.08 123.039 1044.71 121.291 1044.71 119.004C1044.71 116.731 1045.08 114.989 1045.83 113.779C1046.58 112.569 1047.66 111.964 1049.07 111.964ZM1046.13 119.004C1046.13 120.626 1046.28 121.896 1046.57 122.813L1051.01 113.978C1050.54 113.353 1049.9 113.041 1049.07 113.041C1048.15 113.041 1047.43 113.533 1046.91 114.517C1046.39 115.487 1046.13 116.983 1046.13 119.004ZM1049.07 124.967C1050 124.967 1050.73 124.482 1051.25 123.511C1051.77 122.528 1052.03 121.025 1052.03 119.004C1052.03 117.289 1051.86 115.959 1051.53 115.015L1047.09 123.93C1047.57 124.622 1048.23 124.967 1049.07 124.967Z" fill="url(#paint63_linear_122_130)"/>
<path d="M1050.27 147.601H1053.21V148.658H1045.59V147.601H1048.99V136.392L1045.75 138.327L1045.19 137.429L1049.19 134.956H1050.27V147.601Z" fill="url(#paint64_linear_122_130)"/>
<path d="M1049.07 157.55C1050.5 157.55 1051.58 158.155 1052.31 159.365C1053.06 160.561 1053.43 162.303 1053.43 164.59C1053.43 166.877 1053.06 168.625 1052.31 169.835C1051.58 171.045 1050.5 171.65 1049.07 171.65C1047.66 171.65 1046.58 171.045 1045.83 169.835C1045.08 168.625 1044.71 166.877 1044.71 164.59C1044.71 162.316 1045.08 160.574 1045.83 159.365C1046.58 158.155 1047.66 157.55 1049.07 157.55ZM1046.13 164.59C1046.13 166.212 1046.28 167.482 1046.57 168.399L1051.01 159.564C1050.54 158.939 1049.9 158.627 1049.07 158.627C1048.15 158.627 1047.43 159.119 1046.91 160.102C1046.39 161.073 1046.13 162.569 1046.13 164.59ZM1049.07 170.553C1050 170.553 1050.73 170.068 1051.25 169.097C1051.77 168.113 1052.03 166.611 1052.03 164.59C1052.03 162.875 1051.86 161.545 1051.53 160.601L1047.09 169.516C1047.57 170.207 1048.23 170.553 1049.07 170.553Z" fill="url(#paint65_linear_122_130)"/>
<path d="M1050.27 193.186H1053.21V194.243H1045.59V193.186H1048.99V181.978L1045.75 183.912L1045.19 183.015L1049.19 180.542H1050.27V193.186Z" fill="url(#paint66_linear_122_130)"/>
<path d="M1049.07 203.135C1050.5 203.135 1051.58 203.74 1052.31 204.95C1053.06 206.147 1053.43 207.888 1053.43 210.175C1053.43 212.462 1053.06 214.211 1052.31 215.421C1051.58 216.63 1050.5 217.235 1049.07 217.235C1047.66 217.235 1046.58 216.63 1045.83 215.421C1045.08 214.211 1044.71 212.462 1044.71 210.175C1044.71 207.902 1045.08 206.16 1045.83 204.95C1046.58 203.74 1047.66 203.135 1049.07 203.135ZM1046.13 210.175C1046.13 211.797 1046.28 213.067 1046.57 213.985L1051.01 205.15C1050.54 204.525 1049.9 204.212 1049.07 204.212C1048.15 204.212 1047.43 204.704 1046.91 205.688C1046.39 206.659 1046.13 208.154 1046.13 210.175ZM1049.07 216.139C1050 216.139 1050.73 215.653 1051.25 214.683C1051.77 213.699 1052.03 212.196 1052.03 210.175C1052.03 208.46 1051.86 207.131 1051.53 206.187L1047.09 215.101C1047.57 215.793 1048.23 216.139 1049.07 216.139Z" fill="url(#paint67_linear_122_130)"/>
<path d="M1049.07 225.928C1050.5 225.928 1051.58 226.533 1052.31 227.743C1053.06 228.94 1053.43 230.681 1053.43 232.968C1053.43 235.255 1053.06 237.003 1052.31 238.213C1051.58 239.423 1050.5 240.028 1049.07 240.028C1047.66 240.028 1046.58 239.423 1045.83 238.213C1045.08 237.003 1044.71 235.255 1044.71 232.968C1044.71 230.695 1045.08 228.953 1045.83 227.743C1046.58 226.533 1047.66 225.928 1049.07 225.928ZM1046.13 232.968C1046.13 234.59 1046.28 235.86 1046.57 236.777L1051.01 227.942C1050.54 227.317 1049.9 227.005 1049.07 227.005C1048.15 227.005 1047.43 227.497 1046.91 228.481C1046.39 229.451 1046.13 230.947 1046.13 232.968ZM1049.07 238.931C1050 238.931 1050.73 238.446 1051.25 237.475C1051.77 236.492 1052.03 234.989 1052.03 232.968C1052.03 231.253 1051.86 229.923 1051.53 228.979L1047.09 237.894C1047.57 238.586 1048.23 238.931 1049.07 238.931Z" fill="url(#paint68_linear_122_130)"/>
<path d="M1050.27 261.565H1053.21V262.622H1045.59V261.565H1048.99V250.356L1045.75 252.291L1045.19 251.393L1049.19 248.92H1050.27V261.565Z" fill="url(#paint69_linear_122_130)"/>
<path d="M1049.07 271.514C1050.5 271.514 1051.58 272.119 1052.31 273.329C1053.06 274.525 1053.43 276.267 1053.43 278.554C1053.43 280.841 1053.06 282.589 1052.31 283.799C1051.58 285.009 1050.5 285.614 1049.07 285.614C1047.66 285.614 1046.58 285.009 1045.83 283.799C1045.08 282.589 1044.71 280.841 1044.71 278.554C1044.71 276.28 1045.08 274.538 1045.83 273.329C1046.58 272.119 1047.66 271.514 1049.07 271.514ZM1046.13 278.554C1046.13 280.176 1046.28 281.446 1046.57 282.363L1051.01 273.528C1050.54 272.903 1049.9 272.591 1049.07 272.591C1048.15 272.591 1047.43 273.083 1046.91 274.066C1046.39 275.037 1046.13 276.533 1046.13 278.554ZM1049.07 284.517C1050 284.517 1050.73 284.032 1051.25 283.061C1051.77 282.077 1052.03 280.575 1052.03 278.554C1052.03 276.839 1051.86 275.509 1051.53 274.565L1047.09 283.48C1047.57 284.171 1048.23 284.517 1049.07 284.517Z" fill="url(#paint70_linear_122_130)"/>
<path d="M1050.27 307.15H1053.21V308.207H1045.59V307.15H1048.99V295.942L1045.75 297.876L1045.19 296.979L1049.19 294.506H1050.27V307.15Z" fill="url(#paint71_linear_122_130)"/>
<path d="M1050.27 329.943H1053.21V331H1045.59V329.943H1048.99V318.735L1045.75 320.669L1045.19 319.772L1049.19 317.299H1050.27V329.943Z" fill="url(#paint72_linear_122_130)"/>
<path d="M993.36 66.3784C994.786 66.3784 995.866 66.9834 996.599 68.1933C997.346 69.3899 997.719 71.1317 997.719 73.4185C997.719 75.7054 997.346 77.4538 996.599 78.6637C995.866 79.8736 994.786 80.4786 993.36 80.4786C991.946 80.4786 990.867 79.8736 990.12 78.6637C989.373 77.4538 989 75.7054 989 73.4185C989 71.145 989.373 69.4032 990.12 68.1933C990.867 66.9834 991.946 66.3784 993.36 66.3784ZM990.42 73.4185C990.42 75.0406 990.567 76.3104 990.86 77.2278L995.3 68.3927C994.833 67.7678 994.186 67.4554 993.36 67.4554C992.44 67.4554 991.72 67.9473 991.2 68.9312C990.68 69.9018 990.42 71.3976 990.42 73.4185ZM993.36 79.3817C994.293 79.3817 995.02 78.8964 995.54 77.9258C996.06 76.9419 996.319 75.4395 996.319 73.4185C996.319 71.7034 996.153 70.3738 995.82 69.4298L991.38 78.3446C991.86 79.036 992.52 79.3817 993.36 79.3817Z" fill="url(#paint73_linear_122_130)"/>
<path d="M993.36 89.1712C994.786 89.1712 995.866 89.7762 996.599 90.9861C997.346 92.1827 997.719 93.9245 997.719 96.2113C997.719 98.4982 997.346 100.247 996.599 101.457C995.866 102.666 994.786 103.271 993.36 103.271C991.946 103.271 990.867 102.666 990.12 101.457C989.373 100.247 989 98.4982 989 96.2113C989 93.9378 989.373 92.196 990.12 90.9861C990.867 89.7762 991.946 89.1712 993.36 89.1712ZM990.42 96.2113C990.42 97.8334 990.567 99.1032 990.86 100.021L995.3 91.1855C994.833 90.5606 994.186 90.2482 993.36 90.2482C992.44 90.2482 991.72 90.7401 991.2 91.724C990.68 92.6946 990.42 94.1904 990.42 96.2113ZM993.36 102.174C994.293 102.174 995.02 101.689 995.54 100.719C996.06 99.7347 996.319 98.2323 996.319 96.2113C996.319 94.4962 996.153 93.1666 995.82 92.2226L991.38 101.137C991.86 101.829 992.52 102.174 993.36 102.174Z" fill="url(#paint74_linear_122_130)"/>
<path d="M994.56 124.808H997.499V125.865H989.88V124.808H993.28V113.599L990.04 115.534L989.48 114.636L993.48 112.163H994.56V124.808Z" fill="url(#paint75_linear_122_130)"/>
<path d="M993.36 134.757C994.786 134.757 995.866 135.362 996.599 136.572C997.346 137.768 997.719 139.51 997.719 141.797C997.719 144.084 997.346 145.832 996.599 147.042C995.866 148.252 994.786 148.857 993.36 148.857C991.946 148.857 990.867 148.252 990.12 147.042C989.373 145.832 989 144.084 989 141.797C989 139.523 989.373 137.782 990.12 136.572C990.867 135.362 991.946 134.757 993.36 134.757ZM990.42 141.797C990.42 143.419 990.567 144.689 990.86 145.606L995.3 136.771C994.833 136.146 994.186 135.834 993.36 135.834C992.44 135.834 991.72 136.326 991.2 137.31C990.68 138.28 990.42 139.776 990.42 141.797ZM993.36 147.76C994.293 147.76 995.02 147.275 995.54 146.304C996.06 145.32 996.319 143.818 996.319 141.797C996.319 140.082 996.153 138.752 995.82 137.808L991.38 146.723C991.86 147.414 992.52 147.76 993.36 147.76Z" fill="url(#paint76_linear_122_130)"/>
<path d="M994.56 170.393H997.499V171.45H989.88V170.393H993.28V159.185L990.04 161.12L989.48 160.222L993.48 157.749H994.56V170.393Z" fill="url(#paint77_linear_122_130)"/>
<path d="M994.56 193.186H997.499V194.243H989.88V193.186H993.28V181.978L990.04 183.912L989.48 183.015L993.48 180.542H994.56V193.186Z" fill="url(#paint78_linear_122_130)"/>
<path d="M1031.7 33.6365H1034.64V34.6936H1027.02V33.6365H1030.42V22.4282L1027.18 24.3627L1026.62 23.4653L1030.62 20.9922H1031.7V33.6365Z" fill="url(#paint79_linear_122_130)"/>
<path d="M1030.5 43.5856C1031.93 43.5856 1033.01 44.1906 1033.74 45.4005C1034.49 46.5971 1034.86 48.3389 1034.86 50.6257C1034.86 52.9126 1034.49 54.661 1033.74 55.8709C1033.01 57.0808 1031.93 57.6858 1030.5 57.6858C1029.09 57.6858 1028.01 57.0808 1027.26 55.8709C1026.51 54.661 1026.14 52.9126 1026.14 50.6257C1026.14 48.3522 1026.51 46.6104 1027.26 45.4005C1028.01 44.1906 1029.09 43.5856 1030.5 43.5856ZM1027.56 50.6257C1027.56 52.2478 1027.71 53.5176 1028 54.435L1032.44 45.5999C1031.97 44.975 1031.33 44.6626 1030.5 44.6626C1029.58 44.6626 1028.86 45.1545 1028.34 46.1384C1027.82 47.109 1027.56 48.6048 1027.56 50.6257ZM1030.5 56.5889C1031.43 56.5889 1032.16 56.1036 1032.68 55.133C1033.2 54.1491 1033.46 52.6467 1033.46 50.6257C1033.46 48.9106 1033.29 47.581 1032.96 46.637L1028.52 55.5518C1029 56.2432 1029.66 56.5889 1030.5 56.5889Z" fill="url(#paint80_linear_122_130)"/>
<path d="M1031.7 79.2221H1034.64V80.2792H1027.02V79.2221H1030.42V68.0138L1027.18 69.9483L1026.62 69.0509L1030.62 66.5778H1031.7V79.2221Z" fill="url(#paint81_linear_122_130)"/>
<path d="M1031.7 102.015H1034.64V103.072H1027.02V102.015H1030.42V90.8066L1027.18 92.7411L1026.62 91.8437L1030.62 89.3706H1031.7V102.015Z" fill="url(#paint82_linear_122_130)"/>
<path d="M1030.5 111.964C1031.93 111.964 1033.01 112.569 1033.74 113.779C1034.49 114.976 1034.86 116.717 1034.86 119.004C1034.86 121.291 1034.49 123.039 1033.74 124.249C1033.01 125.459 1031.93 126.064 1030.5 126.064C1029.09 126.064 1028.01 125.459 1027.26 124.249C1026.51 123.039 1026.14 121.291 1026.14 119.004C1026.14 116.731 1026.51 114.989 1027.26 113.779C1028.01 112.569 1029.09 111.964 1030.5 111.964ZM1027.56 119.004C1027.56 120.626 1027.71 121.896 1028 122.813L1032.44 113.978C1031.97 113.353 1031.33 113.041 1030.5 113.041C1029.58 113.041 1028.86 113.533 1028.34 114.517C1027.82 115.487 1027.56 116.983 1027.56 119.004ZM1030.5 124.967C1031.43 124.967 1032.16 124.482 1032.68 123.511C1033.2 122.528 1033.46 121.025 1033.46 119.004C1033.46 117.289 1033.29 115.959 1032.96 115.015L1028.52 123.93C1029 124.622 1029.66 124.967 1030.5 124.967Z" fill="url(#paint83_linear_122_130)"/>
<path d="M1031.7 147.601H1034.64V148.658H1027.02V147.601H1030.42V136.392L1027.18 138.327L1026.62 137.429L1030.62 134.956H1031.7V147.601Z" fill="url(#paint84_linear_122_130)"/>
<path d="M1031.7 170.393H1034.64V171.45H1027.02V170.393H1030.42V159.185L1027.18 161.12L1026.62 160.222L1030.62 157.749H1031.7V170.393Z" fill="url(#paint85_linear_122_130)"/>
<path d="M1030.5 180.342C1031.93 180.342 1033.01 180.947 1033.74 182.157C1034.49 183.354 1034.86 185.096 1034.86 187.383C1034.86 189.669 1034.49 191.418 1033.74 192.628C1033.01 193.838 1031.93 194.443 1030.5 194.443C1029.09 194.443 1028.01 193.838 1027.26 192.628C1026.51 191.418 1026.14 189.669 1026.14 187.383C1026.14 185.109 1026.51 183.367 1027.26 182.157C1028.01 180.947 1029.09 180.342 1030.5 180.342ZM1027.56 187.383C1027.56 189.005 1027.71 190.274 1028 191.192L1032.44 182.357C1031.97 181.732 1031.33 181.419 1030.5 181.419C1029.58 181.419 1028.86 181.911 1028.34 182.895C1027.82 183.866 1027.56 185.362 1027.56 187.383ZM1030.5 193.346C1031.43 193.346 1032.16 192.86 1032.68 191.89C1033.2 190.906 1033.46 189.404 1033.46 187.383C1033.46 185.667 1033.29 184.338 1032.96 183.394L1028.52 192.309C1029 193 1029.66 193.346 1030.5 193.346Z" fill="url(#paint86_linear_122_130)"/>
<path d="M1031.7 215.979H1034.64V217.036H1027.02V215.979H1030.42V204.771L1027.18 206.705L1026.62 205.808L1030.62 203.335H1031.7V215.979Z" fill="url(#paint87_linear_122_130)"/>
<path d="M1030.5 225.928C1031.93 225.928 1033.01 226.533 1033.74 227.743C1034.49 228.94 1034.86 230.681 1034.86 232.968C1034.86 235.255 1034.49 237.003 1033.74 238.213C1033.01 239.423 1031.93 240.028 1030.5 240.028C1029.09 240.028 1028.01 239.423 1027.26 238.213C1026.51 237.003 1026.14 235.255 1026.14 232.968C1026.14 230.695 1026.51 228.953 1027.26 227.743C1028.01 226.533 1029.09 225.928 1030.5 225.928ZM1027.56 232.968C1027.56 234.59 1027.71 235.86 1028 236.777L1032.44 227.942C1031.97 227.317 1031.33 227.005 1030.5 227.005C1029.58 227.005 1028.86 227.497 1028.34 228.481C1027.82 229.451 1027.56 230.947 1027.56 232.968ZM1030.5 238.931C1031.43 238.931 1032.16 238.446 1032.68 237.475C1033.2 236.492 1033.46 234.989 1033.46 232.968C1033.46 231.253 1033.29 229.923 1032.96 228.979L1028.52 237.894C1029 238.586 1029.66 238.931 1030.5 238.931Z" fill="url(#paint88_linear_122_130)"/>
<path d="M1067.64 20.7928C1069.07 20.7928 1070.15 21.3978 1070.88 22.6077C1071.63 23.8043 1072 25.5461 1072 27.8329C1072 30.1198 1071.63 31.8682 1070.88 33.0781C1070.15 34.288 1069.07 34.893 1067.64 34.893C1066.23 34.893 1065.15 34.288 1064.4 33.0781C1063.65 31.8682 1063.28 30.1198 1063.28 27.8329C1063.28 25.5593 1063.65 23.8176 1064.4 22.6077C1065.15 21.3978 1066.23 20.7928 1067.64 20.7928ZM1064.7 27.8329C1064.7 29.455 1064.85 30.7248 1065.14 31.6422L1069.58 22.8071C1069.11 22.1822 1068.47 21.8698 1067.64 21.8698C1066.72 21.8698 1066 22.3617 1065.48 23.3456C1064.96 24.3162 1064.7 25.812 1064.7 27.8329ZM1067.64 33.7961C1068.57 33.7961 1069.3 33.3108 1069.82 32.3402C1070.34 31.3563 1070.6 29.8539 1070.6 27.8329C1070.6 26.1178 1070.43 24.7882 1070.1 23.8442L1065.66 32.759C1066.14 33.4504 1066.8 33.7961 1067.64 33.7961Z" fill="url(#paint89_linear_122_130)"/>
<path d="M1068.84 56.4293H1071.78V57.4864H1064.16V56.4293H1067.56V45.221L1064.32 47.1555L1063.76 46.2581L1067.76 43.785H1068.84V56.4293Z" fill="url(#paint90_linear_122_130)"/>
<path d="M1068.84 79.2221H1071.78V80.2792H1064.16V79.2221H1067.56V68.0138L1064.32 69.9483L1063.76 69.0509L1067.76 66.5778H1068.84V79.2221Z" fill="url(#paint91_linear_122_130)"/>
<path d="M1067.64 89.1712C1069.07 89.1712 1070.15 89.7762 1070.88 90.9861C1071.63 92.1827 1072 93.9245 1072 96.2113C1072 98.4982 1071.63 100.247 1070.88 101.457C1070.15 102.666 1069.07 103.271 1067.64 103.271C1066.23 103.271 1065.15 102.666 1064.4 101.457C1063.65 100.247 1063.28 98.4982 1063.28 96.2113C1063.28 93.9378 1063.65 92.196 1064.4 90.9861C1065.15 89.7762 1066.23 89.1712 1067.64 89.1712ZM1064.7 96.2113C1064.7 97.8334 1064.85 99.1032 1065.14 100.021L1069.58 91.1855C1069.11 90.5606 1068.47 90.2482 1067.64 90.2482C1066.72 90.2482 1066 90.7401 1065.48 91.724C1064.96 92.6946 1064.7 94.1904 1064.7 96.2113ZM1067.64 102.174C1068.57 102.174 1069.3 101.689 1069.82 100.719C1070.34 99.7347 1070.6 98.2323 1070.6 96.2113C1070.6 94.4962 1070.43 93.1666 1070.1 92.2226L1065.66 101.137C1066.14 101.829 1066.8 102.174 1067.64 102.174Z" fill="url(#paint92_linear_122_130)"/>
<path d="M1067.64 111.964C1069.07 111.964 1070.15 112.569 1070.88 113.779C1071.63 114.976 1072 116.717 1072 119.004C1072 121.291 1071.63 123.039 1070.88 124.249C1070.15 125.459 1069.07 126.064 1067.64 126.064C1066.23 126.064 1065.15 125.459 1064.4 124.249C1063.65 123.039 1063.28 121.291 1063.28 119.004C1063.28 116.731 1063.65 114.989 1064.4 113.779C1065.15 112.569 1066.23 111.964 1067.64 111.964ZM1064.7 119.004C1064.7 120.626 1064.85 121.896 1065.14 122.813L1069.58 113.978C1069.11 113.353 1068.47 113.041 1067.64 113.041C1066.72 113.041 1066 113.533 1065.48 114.517C1064.96 115.487 1064.7 116.983 1064.7 119.004ZM1067.64 124.967C1068.57 124.967 1069.3 124.482 1069.82 123.511C1070.34 122.528 1070.6 121.025 1070.6 119.004C1070.6 117.289 1070.43 115.959 1070.1 115.015L1065.66 123.93C1066.14 124.622 1066.8 124.967 1067.64 124.967Z" fill="url(#paint93_linear_122_130)"/>
</g>
</g>
<defs>
<filter id="filter0_f_122_130" x="-466.19" y="-688.19" width="2141.38" height="1500.38" filterUnits="userSpaceOnUse" color-interpolation-filters="sRGB">
<feFlood flood-opacity="0" result="BackgroundImageFix"/>
<feBlend mode="normal" in="SourceGraphic" in2="BackgroundImageFix" result="shape"/>
<feGaussianBlur stdDeviation="200.095" result="effect1_foregroundBlur_122_130"/>
</filter>
<linearGradient id="paint0_linear_122_130" x1="144.5" y1="298" x2="144.5" y2="609.381" gradientUnits="userSpaceOnUse">
<stop stop-color="#F7DD43"/>
<stop offset="1" stop-color="#F7DD43" stop-opacity="0"/>
</linearGradient>
<linearGradient id="paint1_linear_122_130" x1="144.5" y1="298" x2="144.5" y2="609.381" gradientUnits="userSpaceOnUse">
<stop stop-color="#F7DD43"/>
<stop offset="1" stop-color="#F7DD43" stop-opacity="0"/>
</linearGradient>
<linearGradient id="paint2_linear_122_130" x1="144.5" y1="298" x2="144.5" y2="609.381" gradientUnits="userSpaceOnUse">
<stop stop-color="#F7DD43"/>
<stop offset="1" stop-color="#F7DD43" stop-opacity="0"/>
</linearGradient>
<linearGradient id="paint3_linear_122_130" x1="144.5" y1="298" x2="144.5" y2="609.381" gradientUnits="userSpaceOnUse">
<stop stop-color="#F7DD43"/>
<stop offset="1" stop-color="#F7DD43" stop-opacity="0"/>
</linearGradient>
<linearGradient id="paint4_linear_122_130" x1="144.5" y1="298" x2="144.5" y2="609.381" gradientUnits="userSpaceOnUse">
<stop stop-color="#F7DD43"/>
<stop offset="1" stop-color="#F7DD43" stop-opacity="0"/>
</linearGradient>
<linearGradient id="paint5_linear_122_130" x1="144.5" y1="298" x2="144.5" y2="609.381" gradientUnits="userSpaceOnUse">
<stop stop-color="#F7DD43"/>
<stop offset="1" stop-color="#F7DD43" stop-opacity="0"/>
</linearGradient>
<linearGradient id="paint6_linear_122_130" x1="144.5" y1="298" x2="144.5" y2="609.381" gradientUnits="userSpaceOnUse">
<stop stop-color="#F7DD43"/>
<stop offset="1" stop-color="#F7DD43" stop-opacity="0"/>
</linearGradient>
<linearGradient id="paint7_linear_122_130" x1="144.5" y1="298" x2="144.5" y2="609.381" gradientUnits="userSpaceOnUse">
<stop stop-color="#F7DD43"/>
<stop offset="1" stop-color="#F7DD43" stop-opacity="0"/>
</linearGradient>
<linearGradient id="paint8_linear_122_130" x1="144.5" y1="298" x2="144.5" y2="609.381" gradientUnits="userSpaceOnUse">
<stop stop-color="#F7DD43"/>
<stop offset="1" stop-color="#F7DD43" stop-opacity="0"/>
</linearGradient>
<linearGradient id="paint9_linear_122_130" x1="144.5" y1="298" x2="144.5" y2="609.381" gradientUnits="userSpaceOnUse">
<stop stop-color="#F7DD43"/>
<stop offset="1" stop-color="#F7DD43" stop-opacity="0"/>
</linearGradient>
<linearGradient id="paint10_linear_122_130" x1="144.5" y1="298" x2="144.5" y2="609.381" gradientUnits="userSpaceOnUse">
<stop stop-color="#F7DD43"/>
<stop offset="1" stop-color="#F7DD43" stop-opacity="0"/>
</linearGradient>
<linearGradient id="paint11_linear_122_130" x1="144.5" y1="298" x2="144.5" y2="609.381" gradientUnits="userSpaceOnUse">
<stop stop-color="#F7DD43"/>
<stop offset="1" stop-color="#F7DD43" stop-opacity="0"/>
</linearGradient>
<linearGradient id="paint12_linear_122_130" x1="144.5" y1="298" x2="144.5" y2="609.381" gradientUnits="userSpaceOnUse">
<stop stop-color="#F7DD43"/>
<stop offset="1" stop-color="#F7DD43" stop-opacity="0"/>
</linearGradient>
<linearGradient id="paint13_linear_122_130" x1="144.5" y1="298" x2="144.5" y2="609.381" gradientUnits="userSpaceOnUse">
<stop stop-color="#F7DD43"/>
<stop offset="1" stop-color="#F7DD43" stop-opacity="0"/>
</linearGradient>
<linearGradient id="paint14_linear_122_130" x1="144.5" y1="298" x2="144.5" y2="609.381" gradientUnits="userSpaceOnUse">
<stop stop-color="#F7DD43"/>
<stop offset="1" stop-color="#F7DD43" stop-opacity="0"/>
</linearGradient>
<linearGradient id="paint15_linear_122_130" x1="144.5" y1="298" x2="144.5" y2="609.381" gradientUnits="userSpaceOnUse">
<stop stop-color="#F7DD43"/>
<stop offset="1" stop-color="#F7DD43" stop-opacity="0"/>
</linearGradient>
<linearGradient id="paint16_linear_122_130" x1="144.5" y1="298" x2="144.5" y2="609.381" gradientUnits="userSpaceOnUse">
<stop stop-color="#F7DD43"/>
<stop offset="1" stop-color="#F7DD43" stop-opacity="0"/>
</linearGradient>
<linearGradient id="paint17_linear_122_130" x1="144.5" y1="298" x2="144.5" y2="609.381" gradientUnits="userSpaceOnUse">
<stop stop-color="#F7DD43"/>
<stop offset="1" stop-color="#F7DD43" stop-opacity="0"/>
</linearGradient>
<linearGradient id="paint18_linear_122_130" x1="144.5" y1="298" x2="144.5" y2="609.381" gradientUnits="userSpaceOnUse">
<stop stop-color="#F7DD43"/>
<stop offset="1" stop-color="#F7DD43" stop-opacity="0"/>
</linearGradient>
<linearGradient id="paint19_linear_122_130" x1="144.5" y1="298" x2="144.5" y2="609.381" gradientUnits="userSpaceOnUse">
<stop stop-color="#F7DD43"/>
<stop offset="1" stop-color="#F7DD43" stop-opacity="0"/>
</linearGradient>
<linearGradient id="paint20_linear_122_130" x1="144.5" y1="298" x2="144.5" y2="609.381" gradientUnits="userSpaceOnUse">
<stop stop-color="#F7DD43"/>
<stop offset="1" stop-color="#F7DD43" stop-opacity="0"/>
</linearGradient>
<linearGradient id="paint21_linear_122_130" x1="144.5" y1="298" x2="144.5" y2="609.381" gradientUnits="userSpaceOnUse">
<stop stop-color="#F7DD43"/>
<stop offset="1" stop-color="#F7DD43" stop-opacity="0"/>
</linearGradient>
<linearGradient id="paint22_linear_122_130" x1="144.5" y1="298" x2="144.5" y2="609.381" gradientUnits="userSpaceOnUse">
<stop stop-color="#F7DD43"/>
<stop offset="1" stop-color="#F7DD43" stop-opacity="0"/>
</linearGradient>
<linearGradient id="paint23_linear_122_130" x1="144.5" y1="298" x2="144.5" y2="609.381" gradientUnits="userSpaceOnUse">
<stop stop-color="#F7DD43"/>
<stop offset="1" stop-color="#F7DD43" stop-opacity="0"/>
</linearGradient>
<linearGradient id="paint24_linear_122_130" x1="144.5" y1="298" x2="144.5" y2="609.381" gradientUnits="userSpaceOnUse">
<stop stop-color="#F7DD43"/>
<stop offset="1" stop-color="#F7DD43" stop-opacity="0"/>
</linearGradient>
<linearGradient id="paint25_linear_122_130" x1="144.5" y1="298" x2="144.5" y2="609.381" gradientUnits="userSpaceOnUse">
<stop stop-color="#F7DD43"/>
<stop offset="1" stop-color="#F7DD43" stop-opacity="0"/>
</linearGradient>
<linearGradient id="paint26_linear_122_130" x1="144.5" y1="298" x2="144.5" y2="609.381" gradientUnits="userSpaceOnUse">
<stop stop-color="#F7DD43"/>
<stop offset="1" stop-color="#F7DD43" stop-opacity="0"/>
</linearGradient>
<linearGradient id="paint27_linear_122_130" x1="144.5" y1="298" x2="144.5" y2="609.381" gradientUnits="userSpaceOnUse">
<stop stop-color="#F7DD43"/>
<stop offset="1" stop-color="#F7DD43" stop-opacity="0"/>
</linearGradient>
<linearGradient id="paint28_linear_122_130" x1="144.5" y1="298" x2="144.5" y2="609.381" gradientUnits="userSpaceOnUse">
<stop stop-color="#F7DD43"/>
<stop offset="1" stop-color="#F7DD43" stop-opacity="0"/>
</linearGradient>
<linearGradient id="paint29_linear_122_130" x1="144.5" y1="298" x2="144.5" y2="609.381" gradientUnits="userSpaceOnUse">
<stop stop-color="#F7DD43"/>
<stop offset="1" stop-color="#F7DD43" stop-opacity="0"/>
</linearGradient>
<linearGradient id="paint30_linear_122_130" x1="144.5" y1="298" x2="144.5" y2="609.381" gradientUnits="userSpaceOnUse">
<stop stop-color="#F7DD43"/>
<stop offset="1" stop-color="#F7DD43" stop-opacity="0"/>
</linearGradient>
<linearGradient id="paint31_linear_122_130" x1="144.5" y1="298" x2="144.5" y2="609.381" gradientUnits="userSpaceOnUse">
<stop stop-color="#F7DD43"/>
<stop offset="1" stop-color="#F7DD43" stop-opacity="0"/>
</linearGradient>
<linearGradient id="paint32_linear_122_130" x1="144.5" y1="298" x2="144.5" y2="609.381" gradientUnits="userSpaceOnUse">
<stop stop-color="#F7DD43"/>
<stop offset="1" stop-color="#F7DD43" stop-opacity="0"/>
</linearGradient>
<linearGradient id="paint33_linear_122_130" x1="144.5" y1="298" x2="144.5" y2="609.381" gradientUnits="userSpaceOnUse">
<stop stop-color="#F7DD43"/>
<stop offset="1" stop-color="#F7DD43" stop-opacity="0"/>
</linearGradient>
<linearGradient id="paint34_linear_122_130" x1="144.5" y1="298" x2="144.5" y2="609.381" gradientUnits="userSpaceOnUse">
<stop stop-color="#F7DD43"/>
<stop offset="1" stop-color="#F7DD43" stop-opacity="0"/>
</linearGradient>
<linearGradient id="paint35_linear_122_130" x1="144.5" y1="298" x2="144.5" y2="609.381" gradientUnits="userSpaceOnUse">
<stop stop-color="#F7DD43"/>
<stop offset="1" stop-color="#F7DD43" stop-opacity="0"/>
</linearGradient>
<linearGradient id="paint36_linear_122_130" x1="144.5" y1="298" x2="144.5" y2="609.381" gradientUnits="userSpaceOnUse">
<stop stop-color="#F7DD43"/>
<stop offset="1" stop-color="#F7DD43" stop-opacity="0"/>
</linearGradient>
<linearGradient id="paint37_linear_122_130" x1="144.5" y1="298" x2="144.5" y2="609.381" gradientUnits="userSpaceOnUse">
<stop stop-color="#F7DD43"/>
<stop offset="1" stop-color="#F7DD43" stop-opacity="0"/>
</linearGradient>
<linearGradient id="paint38_linear_122_130" x1="144.5" y1="298" x2="144.5" y2="609.381" gradientUnits="userSpaceOnUse">
<stop stop-color="#F7DD43"/>
<stop offset="1" stop-color="#F7DD43" stop-opacity="0"/>
</linearGradient>
<linearGradient id="paint39_linear_122_130" x1="144.5" y1="298" x2="144.5" y2="609.381" gradientUnits="userSpaceOnUse">
<stop stop-color="#F7DD43"/>
<stop offset="1" stop-color="#F7DD43" stop-opacity="0"/>
</linearGradient>
<linearGradient id="paint40_linear_122_130" x1="144.5" y1="298" x2="144.5" y2="609.381" gradientUnits="userSpaceOnUse">
<stop stop-color="#F7DD43"/>
<stop offset="1" stop-color="#F7DD43" stop-opacity="0"/>
</linearGradient>
<linearGradient id="paint41_linear_122_130" x1="144.5" y1="298" x2="144.5" y2="609.381" gradientUnits="userSpaceOnUse">
<stop stop-color="#F7DD43"/>
<stop offset="1" stop-color="#F7DD43" stop-opacity="0"/>
</linearGradient>
<linearGradient id="paint42_linear_122_130" x1="144.5" y1="298" x2="144.5" y2="609.381" gradientUnits="userSpaceOnUse">
<stop stop-color="#F7DD43"/>
<stop offset="1" stop-color="#F7DD43" stop-opacity="0"/>
</linearGradient>
<linearGradient id="paint43_linear_122_130" x1="144.5" y1="298" x2="144.5" y2="609.381" gradientUnits="userSpaceOnUse">
<stop stop-color="#F7DD43"/>
<stop offset="1" stop-color="#F7DD43" stop-opacity="0"/>
</linearGradient>
<linearGradient id="paint44_linear_122_130" x1="144.5" y1="298" x2="144.5" y2="609.381" gradientUnits="userSpaceOnUse">
<stop stop-color="#F7DD43"/>
<stop offset="1" stop-color="#F7DD43" stop-opacity="0"/>
</linearGradient>
<linearGradient id="paint45_linear_122_130" x1="144.5" y1="298" x2="144.5" y2="609.381" gradientUnits="userSpaceOnUse">
<stop stop-color="#F7DD43"/>
<stop offset="1" stop-color="#F7DD43" stop-opacity="0"/>
</linearGradient>
<linearGradient id="paint46_linear_122_130" x1="144.5" y1="298" x2="144.5" y2="609.381" gradientUnits="userSpaceOnUse">
<stop stop-color="#F7DD43"/>
<stop offset="1" stop-color="#F7DD43" stop-opacity="0"/>
</linearGradient>
<linearGradient id="paint47_linear_122_130" x1="1030.5" y1="-2" x2="1030.5" y2="296.818" gradientUnits="userSpaceOnUse">
<stop stop-color="#F7DD43"/>
<stop offset="1" stop-color="#F7DD43" stop-opacity="0"/>
</linearGradient>
<linearGradient id="paint48_linear_122_130" x1="1030.5" y1="-2" x2="1030.5" y2="296.818" gradientUnits="userSpaceOnUse">
<stop stop-color="#F7DD43"/>
<stop offset="1" stop-color="#F7DD43" stop-opacity="0"/>
</linearGradient>
<linearGradient id="paint49_linear_122_130" x1="1030.5" y1="-2" x2="1030.5" y2="296.818" gradientUnits="userSpaceOnUse">
<stop stop-color="#F7DD43"/>
<stop offset="1" stop-color="#F7DD43" stop-opacity="0"/>
</linearGradient>
<linearGradient id="paint50_linear_122_130" x1="1030.5" y1="-2" x2="1030.5" y2="296.818" gradientUnits="userSpaceOnUse">
<stop stop-color="#F7DD43"/>
<stop offset="1" stop-color="#F7DD43" stop-opacity="0"/>
</linearGradient>
<linearGradient id="paint51_linear_122_130" x1="1030.5" y1="-2" x2="1030.5" y2="296.818" gradientUnits="userSpaceOnUse">
<stop stop-color="#F7DD43"/>
<stop offset="1" stop-color="#F7DD43" stop-opacity="0"/>
</linearGradient>
<linearGradient id="paint52_linear_122_130" x1="1030.5" y1="-2" x2="1030.5" y2="296.818" gradientUnits="userSpaceOnUse">
<stop stop-color="#F7DD43"/>
<stop offset="1" stop-color="#F7DD43" stop-opacity="0"/>
</linearGradient>
<linearGradient id="paint53_linear_122_130" x1="1030.5" y1="-2" x2="1030.5" y2="296.818" gradientUnits="userSpaceOnUse">
<stop stop-color="#F7DD43"/>
<stop offset="1" stop-color="#F7DD43" stop-opacity="0"/>
</linearGradient>
<linearGradient id="paint54_linear_122_130" x1="1030.5" y1="-2" x2="1030.5" y2="296.818" gradientUnits="userSpaceOnUse">
<stop stop-color="#F7DD43"/>
<stop offset="1" stop-color="#F7DD43" stop-opacity="0"/>
</linearGradient>
<linearGradient id="paint55_linear_122_130" x1="1030.5" y1="-2" x2="1030.5" y2="296.818" gradientUnits="userSpaceOnUse">
<stop stop-color="#F7DD43"/>
<stop offset="1" stop-color="#F7DD43" stop-opacity="0"/>
</linearGradient>
<linearGradient id="paint56_linear_122_130" x1="1030.5" y1="-2" x2="1030.5" y2="296.818" gradientUnits="userSpaceOnUse">
<stop stop-color="#F7DD43"/>
<stop offset="1" stop-color="#F7DD43" stop-opacity="0"/>
</linearGradient>
<linearGradient id="paint57_linear_122_130" x1="1030.5" y1="-2" x2="1030.5" y2="296.818" gradientUnits="userSpaceOnUse">
<stop stop-color="#F7DD43"/>
<stop offset="1" stop-color="#F7DD43" stop-opacity="0"/>
</linearGradient>
<linearGradient id="paint58_linear_122_130" x1="1030.5" y1="-2" x2="1030.5" y2="296.818" gradientUnits="userSpaceOnUse">
<stop stop-color="#F7DD43"/>
<stop offset="1" stop-color="#F7DD43" stop-opacity="0"/>
</linearGradient>
<linearGradient id="paint59_linear_122_130" x1="1030.5" y1="-2" x2="1030.5" y2="296.818" gradientUnits="userSpaceOnUse">
<stop stop-color="#F7DD43"/>
<stop offset="1" stop-color="#F7DD43" stop-opacity="0"/>
</linearGradient>
<linearGradient id="paint60_linear_122_130" x1="1030.5" y1="-2" x2="1030.5" y2="296.818" gradientUnits="userSpaceOnUse">
<stop stop-color="#F7DD43"/>
<stop offset="1" stop-color="#F7DD43" stop-opacity="0"/>
</linearGradient>
<linearGradient id="paint61_linear_122_130" x1="1030.5" y1="-2" x2="1030.5" y2="296.818" gradientUnits="userSpaceOnUse">
<stop stop-color="#F7DD43"/>
<stop offset="1" stop-color="#F7DD43" stop-opacity="0"/>
</linearGradient>
<linearGradient id="paint62_linear_122_130" x1="1030.5" y1="-2" x2="1030.5" y2="296.818" gradientUnits="userSpaceOnUse">
<stop stop-color="#F7DD43"/>
<stop offset="1" stop-color="#F7DD43" stop-opacity="0"/>
</linearGradient>
<linearGradient id="paint63_linear_122_130" x1="1030.5" y1="-2" x2="1030.5" y2="296.818" gradientUnits="userSpaceOnUse">
<stop stop-color="#F7DD43"/>
<stop offset="1" stop-color="#F7DD43" stop-opacity="0"/>
</linearGradient>
<linearGradient id="paint64_linear_122_130" x1="1030.5" y1="-2" x2="1030.5" y2="296.818" gradientUnits="userSpaceOnUse">
<stop stop-color="#F7DD43"/>
<stop offset="1" stop-color="#F7DD43" stop-opacity="0"/>
</linearGradient>
<linearGradient id="paint65_linear_122_130" x1="1030.5" y1="-2" x2="1030.5" y2="296.818" gradientUnits="userSpaceOnUse">
<stop stop-color="#F7DD43"/>
<stop offset="1" stop-color="#F7DD43" stop-opacity="0"/>
</linearGradient>
<linearGradient id="paint66_linear_122_130" x1="1030.5" y1="-2" x2="1030.5" y2="296.818" gradientUnits="userSpaceOnUse">
<stop stop-color="#F7DD43"/>
<stop offset="1" stop-color="#F7DD43" stop-opacity="0"/>
</linearGradient>
<linearGradient id="paint67_linear_122_130" x1="1030.5" y1="-2" x2="1030.5" y2="296.818" gradientUnits="userSpaceOnUse">
<stop stop-color="#F7DD43"/>
<stop offset="1" stop-color="#F7DD43" stop-opacity="0"/>
</linearGradient>
<linearGradient id="paint68_linear_122_130" x1="1030.5" y1="-2" x2="1030.5" y2="296.818" gradientUnits="userSpaceOnUse">
<stop stop-color="#F7DD43"/>
<stop offset="1" stop-color="#F7DD43" stop-opacity="0"/>
</linearGradient>
<linearGradient id="paint69_linear_122_130" x1="1030.5" y1="-2" x2="1030.5" y2="296.818" gradientUnits="userSpaceOnUse">
<stop stop-color="#F7DD43"/>
<stop offset="1" stop-color="#F7DD43" stop-opacity="0"/>
</linearGradient>
<linearGradient id="paint70_linear_122_130" x1="1030.5" y1="-2" x2="1030.5" y2="296.818" gradientUnits="userSpaceOnUse">
<stop stop-color="#F7DD43"/>
<stop offset="1" stop-color="#F7DD43" stop-opacity="0"/>
</linearGradient>
<linearGradient id="paint71_linear_122_130" x1="1030.5" y1="-2" x2="1030.5" y2="296.818" gradientUnits="userSpaceOnUse">
<stop stop-color="#F7DD43"/>
<stop offset="1" stop-color="#F7DD43" stop-opacity="0"/>
</linearGradient>
<linearGradient id="paint72_linear_122_130" x1="1030.5" y1="-2" x2="1030.5" y2="296.818" gradientUnits="userSpaceOnUse">
<stop stop-color="#F7DD43"/>
<stop offset="1" stop-color="#F7DD43" stop-opacity="0"/>
</linearGradient>
<linearGradient id="paint73_linear_122_130" x1="1030.5" y1="-2" x2="1030.5" y2="296.818" gradientUnits="userSpaceOnUse">
<stop stop-color="#F7DD43"/>
<stop offset="1" stop-color="#F7DD43" stop-opacity="0"/>
</linearGradient>
<linearGradient id="paint74_linear_122_130" x1="1030.5" y1="-2" x2="1030.5" y2="296.818" gradientUnits="userSpaceOnUse">
<stop stop-color="#F7DD43"/>
<stop offset="1" stop-color="#F7DD43" stop-opacity="0"/>
</linearGradient>
<linearGradient id="paint75_linear_122_130" x1="1030.5" y1="-2" x2="1030.5" y2="296.818" gradientUnits="userSpaceOnUse">
<stop stop-color="#F7DD43"/>
<stop offset="1" stop-color="#F7DD43" stop-opacity="0"/>
</linearGradient>
<linearGradient id="paint76_linear_122_130" x1="1030.5" y1="-2" x2="1030.5" y2="296.818" gradientUnits="userSpaceOnUse">
<stop stop-color="#F7DD43"/>
<stop offset="1" stop-color="#F7DD43" stop-opacity="0"/>
</linearGradient>
<linearGradient id="paint77_linear_122_130" x1="1030.5" y1="-2" x2="1030.5" y2="296.818" gradientUnits="userSpaceOnUse">
<stop stop-color="#F7DD43"/>
<stop offset="1" stop-color="#F7DD43" stop-opacity="0"/>
</linearGradient>
<linearGradient id="paint78_linear_122_130" x1="1030.5" y1="-2" x2="1030.5" y2="296.818" gradientUnits="userSpaceOnUse">
<stop stop-color="#F7DD43"/>
<stop offset="1" stop-color="#F7DD43" stop-opacity="0"/>
</linearGradient>
<linearGradient id="paint79_linear_122_130" x1="1030.5" y1="-2" x2="1030.5" y2="296.818" gradientUnits="userSpaceOnUse">
<stop stop-color="#F7DD43"/>
<stop offset="1" stop-color="#F7DD43" stop-opacity="0"/>
</linearGradient>
<linearGradient id="paint80_linear_122_130" x1="1030.5" y1="-2" x2="1030.5" y2="296.818" gradientUnits="userSpaceOnUse">
<stop stop-color="#F7DD43"/>
<stop offset="1" stop-color="#F7DD43" stop-opacity="0"/>
</linearGradient>
<linearGradient id="paint81_linear_122_130" x1="1030.5" y1="-2" x2="1030.5" y2="296.818" gradientUnits="userSpaceOnUse">
<stop stop-color="#F7DD43"/>
<stop offset="1" stop-color="#F7DD43" stop-opacity="0"/>
</linearGradient>
<linearGradient id="paint82_linear_122_130" x1="1030.5" y1="-2" x2="1030.5" y2="296.818" gradientUnits="userSpaceOnUse">
<stop stop-color="#F7DD43"/>
<stop offset="1" stop-color="#F7DD43" stop-opacity="0"/>
</linearGradient>
<linearGradient id="paint83_linear_122_130" x1="1030.5" y1="-2" x2="1030.5" y2="296.818" gradientUnits="userSpaceOnUse">
<stop stop-color="#F7DD43"/>
<stop offset="1" stop-color="#F7DD43" stop-opacity="0"/>
</linearGradient>
<linearGradient id="paint84_linear_122_130" x1="1030.5" y1="-2" x2="1030.5" y2="296.818" gradientUnits="userSpaceOnUse">
<stop stop-color="#F7DD43"/>
<stop offset="1" stop-color="#F7DD43" stop-opacity="0"/>
</linearGradient>
<linearGradient id="paint85_linear_122_130" x1="1030.5" y1="-2" x2="1030.5" y2="296.818" gradientUnits="userSpaceOnUse">
<stop stop-color="#F7DD43"/>
<stop offset="1" stop-color="#F7DD43" stop-opacity="0"/>
</linearGradient>
<linearGradient id="paint86_linear_122_130" x1="1030.5" y1="-2" x2="1030.5" y2="296.818" gradientUnits="userSpaceOnUse">
<stop stop-color="#F7DD43"/>
<stop offset="1" stop-color="#F7DD43" stop-opacity="0"/>
</linearGradient>
<linearGradient id="paint87_linear_122_130" x1="1030.5" y1="-2" x2="1030.5" y2="296.818" gradientUnits="userSpaceOnUse">
<stop stop-color="#F7DD43"/>
<stop offset="1" stop-color="#F7DD43" stop-opacity="0"/>
</linearGradient>
<linearGradient id="paint88_linear_122_130" x1="1030.5" y1="-2" x2="1030.5" y2="296.818" gradientUnits="userSpaceOnUse">
<stop stop-color="#F7DD43"/>
<stop offset="1" stop-color="#F7DD43" stop-opacity="0"/>
</linearGradient>
<linearGradient id="paint89_linear_122_130" x1="1030.5" y1="-2" x2="1030.5" y2="296.818" gradientUnits="userSpaceOnUse">
<stop stop-color="#F7DD43"/>
<stop offset="1" stop-color="#F7DD43" stop-opacity="0"/>
</linearGradient>
<linearGradient id="paint90_linear_122_130" x1="1030.5" y1="-2" x2="1030.5" y2="296.818" gradientUnits="userSpaceOnUse">
<stop stop-color="#F7DD43"/>
<stop offset="1" stop-color="#F7DD43" stop-opacity="0"/>
</linearGradient>
<linearGradient id="paint91_linear_122_130" x1="1030.5" y1="-2" x2="1030.5" y2="296.818" gradientUnits="userSpaceOnUse">
<stop stop-color="#F7DD43"/>
<stop offset="1" stop-color="#F7DD43" stop-opacity="0"/>
</linearGradient>
<linearGradient id="paint92_linear_122_130" x1="1030.5" y1="-2" x2="1030.5" y2="296.818" gradientUnits="userSpaceOnUse">
<stop stop-color="#F7DD43"/>
<stop offset="1" stop-color="#F7DD43" stop-opacity="0"/>
</linearGradient>
<linearGradient id="paint93_linear_122_130" x1="1030.5" y1="-2" x2="1030.5" y2="296.818" gradientUnits="userSpaceOnUse">
<stop stop-color="#F7DD43"/>
<stop offset="1" stop-color="#F7DD43" stop-opacity="0"/>
</linearGradient>
<clipPath id="clip0_122_130">
<rect width="1024" height="753" fill="white"/>
</clipPath>
</defs>
</svg>
